<?xml version="1.0" encoding="UTF-8"?>
<svg version="1.1" viewBox="0 0 24 24" xmlns="http://www.w3.org/2000/svg" xmlns:xlink="http://www.w3.org/1999/xlink">
    <!--Generated by IJSVG (https://github.com/iconjar/IJSVG)-->
    <path d="M23.555,8.729l3.50246e-08,9.40982e-08c-0.218741,-0.587675 -0.778938,-0.97814 -1.406,-0.98h-6.087l2.68576e-08,-1.93516e-11c-0.212283,0.000152966 -0.401522,-0.133758 -0.472,-0.334l-2.185,-6.193l1.93207e-09,5.1673e-09c-0.290134,-0.77596 -1.15437,-1.1698 -1.93033,-0.879667c-0.406725,0.152076 -0.727591,0.472942 -0.879667,0.879667l-0.005,0.016l-2.18,6.177l5.20577e-09,-1.47907e-08c-0.070356,0.199896 -0.259084,0.333729 -0.471,0.334h-6.089l3.78865e-08,2.84874e-11c-0.828427,-0.000622918 -1.5005,0.670445 -1.50113,1.49887c-0.000334486,0.444837 0.196789,0.866877 0.538127,1.15213l5.184,4.3l-3.77088e-09,-3.12929e-09c0.158713,0.131709 0.220269,0.347355 0.155,0.543l-2.178,6.531l1.2098e-08,-3.62941e-08c-0.261971,0.785915 0.162769,1.63539 0.948685,1.89737c0.461523,0.153841 0.968992,0.0743025 1.36132,-0.213366l5.346,-3.92l9.42092e-09,-6.90214e-09c0.175919,-0.128886 0.415081,-0.128886 0.591,1.38043e-08l5.344,3.919l-1.0813e-07,-7.95898e-08c0.667181,0.491082 1.60614,0.348325 2.09722,-0.318856c0.289095,-0.392763 0.369202,-0.901552 0.21478,-1.36414l-2.178,-6.535l1.48273e-08,4.44448e-08c-0.0652692,-0.195645 -0.00371276,-0.411291 0.155,-0.543l5.194,-4.306l-1.51611e-08,1.29429e-08c0.478167,-0.408209 0.651027,-1.0713 0.433,-1.661Z" fill="#C0A574"></path>
</svg>
